<svg xmlns="http://www.w3.org/2000/svg" version="1.1" xmlns:xlink="http://www.w3.org/1999/xlink" xmlns:svgjs="http://svgjs.dev/svgjs" viewBox="0 0 1920 1080"><rect width="1920" height="1080" fill="#676767"></rect><g transform="matrix(-2.112515728529184e-16,-1.15,1.15,-2.112515728529184e-16,330.0234375000002,1633.6769531250002)"><path d="M0,-1080C2.4691917450843306,-975.9918734363481,14.973156058066749,-677.6712970835198,14.815150470505984,-455.9512406180886C14.657144882945218,-234.23118415265742,4.365073225963125,23.017747352913915,-0.9480335253645933,250.32033879258717C-6.261140276692312,477.6229302322604,-21.80975421724656,698.6876287068717,-17.063490037460326,907.8643080199508C-12.317225857674092,1117.04098733303,24.685636547109414,1296.6911326743868,27.529551553352803,1505.3804146710618C30.373466559596192,1714.0696966677367,4.5882585922254675,2050.8967357785104,0,2160L 1920 2160 L 1920 -1080 Z" fill="url(&quot;#SvgjsLinearGradient1243&quot;)"></path><path d="M240,-1080C236.97023121733798,-1011.5244932849548,217.05298855564033,-794.3973595897245,221.8213873040279,-669.146959709729C226.58978605241546,-543.8965598297335,276.7163698284493,-461.2268520822862,268.61039249032535,-328.4976007200274C260.50441515220143,-195.76834935776856,186.65388497905292,-11.728745122274205,173.1855232752843,127.2285484638239C159.7171615715157,266.18584204992203,182.189068257967,365.88130693191,187.80022226771368,505.24616079656124C193.41137627746036,644.6110146612125,195.5759556821035,824.4240917582923,206.85244733376442,963.4176716517316C218.12893898542532,1102.4112515451707,244.75282475940296,1216.4199949945478,255.45917217767908,1339.2076401571965C266.16551959595523,1461.9952853198452,273.6670605397011,1563.344815987157,271.0905318434212,1700.1435426276244C268.51400314714135,1836.9422692680916,245.18175530723687,2083.3572571046043,240,2160L 1920 2160 L 1920 -1080 Z" fill="url(&quot;#SvgjsLinearGradient1244&quot;)"></path><path d="M480,-1080C480.99397397189597,-979.3792211267539,494.0021546944578,-645.7607834377133,485.9638438313759,-476.2753267605235C477.9255329682941,-306.78987008333377,437.2413617894483,-222.61528119637208,431.770134821509,-63.08725993686132C426.29890785356963,96.44076132264942,440.469597263869,285.77192249140705,453.1364820237398,480.89280079654105C465.8033667836106,676.013679101675,506.085714421194,915.289617134785,507.77144338073373,1107.6380098939426C509.4571723402735,1299.9864026531002,467.87942967776706,1459.58949233381,463.2508557809781,1634.9831573514864C458.62228188418914,1810.3768223691627,477.20847596349637,2072.4971928919144,480,2160L 1920 2160 L 1920 -1080 Z" fill="url(&quot;#SvgjsLinearGradient1245&quot;)"></path><path d="M720,-1080C719.2836875047917,-1007.6980306765353,708.3487258711282,-806.3744507234301,715.7021250287505,-646.1881840592114C723.0555241863728,-486.00191739499263,766.4430200179822,-275.16929267260883,764.1203949457338,-118.88240001468746C761.7977698734853,37.404492643233894,716.6535239041813,153.67959769230143,701.7663745952601,291.5331718883167C686.879225286339,429.386746084332,664.9816465631557,560.4250884130806,674.797499092207,708.2390451614041C684.6133516212583,856.0530019097275,747.8707377611039,1005.6905760540409,760.6614897695682,1178.4169123782572C773.4522417780325,1351.1432487024736,758.3189261045878,1580.9998818364115,751.5420111429931,1744.597063106702C744.7650961813985,1908.1942443769926,725.2570018571655,2090.7661771844505,720,2160L 1920 2160 L 1920 -1080 Z" fill="url(&quot;#SvgjsLinearGradient1246&quot;)"></path><path d="M960,-1080C949.758913671748,-997.8649994759878,904.4157207933379,-758.5400579820765,898.5534820304882,-587.1899968559269C892.6912432676386,-415.83993572977727,907.0184661208124,-238.72016084740667,924.8265674229021,-51.89963324310231C942.6346687249919,134.92089436120207,1008.0810651656803,342.2054925060538,1005.4020898430267,533.7331687698993C1002.7231145203731,725.2608450337448,923.681808767228,917.5339980320575,908.7527154869805,1097.2664243399706C893.823622206733,1276.9988506478837,907.286316076039,1435.0054640073727,915.8275301615423,1612.1277266173777C924.3687442470456,1789.2499892273827,952.6379216935904,2068.6879544362296,960,2160L 1920 2160 L 1920 -1080 Z" fill="url(&quot;#SvgjsLinearGradient1247&quot;)"></path><path d="M1200,-1080C1197.248616957581,-962.1991038407436,1186.1407391750322,-598.5964643134993,1183.4917017454861,-373.1946230444622C1180.84266431594,-147.79278177542514,1177.4808129672783,54.79459552312895,1184.1057754227236,272.41104761422247C1190.7307378781688,490.027499705316,1223.6690107570507,727.2285945594712,1223.2414764781574,932.504089502099C1222.8139421992641,1137.7795844447269,1185.4141491623898,1299.481365520339,1181.5405697493636,1504.0640172699893C1177.6669903363374,1708.6466690196396,1196.9234282915606,2050.677336211665,1200,2160L 1920 2160 L 1920 -1080 Z" fill="url(&quot;#SvgjsLinearGradient1248&quot;)"></path><path d="M1440,-1080C1451.4404669700298,-978.5795730180557,1519.646322388321,-662.2636976826676,1508.6428018201793,-471.4774381083347C1497.6392812520376,-280.6911785340018,1375.137220922302,-92.70515815445515,1373.9788765911496,64.71755744599753C1372.8205322599972,222.1402730464502,1482.7658299040459,311.9488367976255,1501.6927358332648,473.0588554943815C1520.6196417624838,634.1688741911374,1486.8666708461185,848.633888606123,1487.540312166464,1031.3776696265331C1488.2139534868095,1214.1214506469432,1513.6579691164154,1381.417819887931,1505.734583755338,1569.5215416168421C1497.8111983942606,1757.6252633457532,1450.955763959223,2061.586923602807,1440,2160L 1920 2160 L 1920 -1080 Z" fill="url(&quot;#SvgjsLinearGradient1249&quot;)"></path><path d="M1680,-1080C1691.1858600835649,-998.3545715615755,1750.67973188573,-755.0197952967501,1747.1151605013897,-590.1274293694531C1743.5505891170494,-425.2350634421562,1670.1924475579688,-237.9598483301253,1658.612571693958,-90.64580443621855C1647.0326958299472,56.6682394576882,1670.487928709705,157.72788607833272,1677.6359053173255,293.75683399398736C1684.783881924946,429.78578190964197,1698.527982313548,568.4883892579725,1701.5004313396803,725.5278830577092C1704.4728803658127,882.567376857446,1702.3594891948737,1081.3684999676057,1695.47059947412,1235.9937967924081C1688.5817097533663,1390.6190936172106,1662.7455262608455,1499.2786301385922,1660.1670930151588,1653.2796640065242C1657.588659769472,1807.280697874456,1676.6945155025264,2075.546610667754,1680,2160L 1920 2160 L 1920 -1080 Z" fill="url(&quot;#SvgjsLinearGradient1250&quot;)"></path></g><defs><linearGradient x1="0.1" y1="0" x2="0" y2="1" id="SvgjsLinearGradient1243"><stop stop-color="#676767" offset="0"></stop><stop stop-color="#676767" offset="0"></stop></linearGradient><linearGradient x1="0.1" y1="0" x2="0" y2="1" id="SvgjsLinearGradient1244"><stop stop-color="#7a7a7a" offset="0"></stop><stop stop-color="#7a7a7a" offset="0.125"></stop></linearGradient><linearGradient x1="0.1" y1="0" x2="0" y2="1" id="SvgjsLinearGradient1245"><stop stop-color="#8d8d8d" offset="0"></stop><stop stop-color="#8d8d8d" offset="0.25"></stop></linearGradient><linearGradient x1="0.1" y1="0" x2="0" y2="1" id="SvgjsLinearGradient1246"><stop stop-color="#a0a0a0" offset="0"></stop><stop stop-color="#a0a0a0" offset="0.375"></stop></linearGradient><linearGradient x1="0.1" y1="0" x2="0" y2="1" id="SvgjsLinearGradient1247"><stop stop-color="#b3b3b3" offset="0"></stop><stop stop-color="#b3b3b3" offset="0.5"></stop></linearGradient><linearGradient x1="0.1" y1="0" x2="0" y2="1" id="SvgjsLinearGradient1248"><stop stop-color="#c6c6c6" offset="0"></stop><stop stop-color="#c6c6c6" offset="0.625"></stop></linearGradient><linearGradient x1="0.1" y1="0" x2="0" y2="1" id="SvgjsLinearGradient1249"><stop stop-color="#d9d9d9" offset="0"></stop><stop stop-color="#d9d9d9" offset="0.75"></stop></linearGradient><linearGradient x1="0.1" y1="0" x2="0" y2="1" id="SvgjsLinearGradient1250"><stop stop-color="#ececec" offset="0"></stop><stop stop-color="#ececec" offset="0.875"></stop></linearGradient></defs></svg>